#!OML:ASF I:\Random Stuff\random\construction\7_22_03\Session 2\subj1.ASF
:FULLY-SPECIFIED
:DEGREES
1080
root -15.9524 17.6307 -1.39187 24.1379 94.1409 16.9522
lowerback 5.45263 0.893877 3.66968
upperback 0.824348 1.47926 1.60015
thorax -2.15832 0.729396 -0.518028
lowerneck -20.4144 0.706356 0.450939
upperneck 34.9718 0.84525 2.81914
head 15.8126 1.17706 1.39362
rclavicle -9.93923e-017 -1.43125e-014
rhumerus -34.4283 2.82986 -77.2041
rradius 32.7858
rwrist 8.02893
rhand -15.5826 20.4239
rfingers 7.12502
rthumb 10.6028 -9.28866
lclavicle -9.93923e-017 -1.43125e-014
lhumerus -31.7352 0.498795 88.7858
lradius 31.4662
lwrist 23.8103
lhand -25.8503 54.4913
lfingers 7.12502
lthumb 0.690295 84.47
rfemur -0.76273 7.65629 25.0401
rtibia 6.83107
rfoot -9.73375 -13.9876
rtoes -12.9994
lfemur -30.825 1.50687 -12.0311
ltibia 40.4194
lfoot -11.2869 -4.50449
ltoes -29.6091
1081
root -15.9888 17.6188 -1.36954 23.927 94.0899 16.9106
lowerback 5.38664 0.898478 3.70515
upperback 0.828473 1.48583 1.6475
thorax -2.11734 0.733577 -0.488248
lowerneck -20.2691 0.774144 0.566658
upperneck 34.867 0.894978 2.83767
head 15.727 1.21517 1.38536
rclavicle -2.3059e-014 -1.98785e-014
rhumerus -34.2828 2.54849 -76.9244
rradius 31.7052
rwrist 8.44197
rhand -15.4046 20.3615
rfingers 7.12502
rthumb 10.7745 -9.34214
lclavicle -2.3059e-014 -1.98785e-014
lhumerus -31.8213 0.361367 88.794
lradius 30.9154
lwrist 23.4357
lhand -25.8697 54.3325
lfingers 7.12502
lthumb 0.671546 84.3112
rfemur -1.50468 8.09018 25.1172
rtibia 8.44932
rfoot -10.3393 -14.5793
rtoes -12.9747
lfemur -30.1835 2.04428 -12.3488
ltibia 41.8221
lfoot -11.6177 -5.1495
ltoes -29.0458
1082
root -16.0135 17.6044 -1.35162 24.1196 94.0353 17.3735
lowerback 5.31413 0.875684 3.67881
upperback 0.895618 1.45277 1.75319
thorax -2.01224 0.720944 -0.36049
lowerneck -20.28 0.800187 0.660811
upperneck 34.9044 0.923286 2.76888
head 15.7486 1.23031 1.34619
rclavicle 1.78906e-014 2.38542e-014
rhumerus -34.0688 1.93138 -76.4777
rradius 30.6496
rwrist 9.27138
rhand -15.2283 20.3216
rfingers 7.12502
rthumb 10.9445 -9.3731
lclavicle 1.78906e-014 2.38542e-014
lhumerus -31.8895 0.25366 88.8497
lradius 30.3441
lwrist 22.9057
lhand -25.6493 54.0389
lfingers 7.12502
lthumb 0.884416 84.0169
rfemur -1.86928 8.5195 25.2236
rtibia 9.61139
rfoot -10.7958 -15.0655
rtoes -12.847
lfemur -29.3116 2.44433 -12.5606
ltibia 42.9259
lfoot -11.9194 -5.52369
ltoes -28.9533
1083
root -16.0272 17.5901 -1.33796 25.5999 93.9201 19.0955
lowerback 5.17529 0.863687 3.63116
upperback 0.946876 1.43119 1.90199
thorax -1.88761 0.714431 -0.176331
lowerneck -20.3229 0.846156 0.724259
upperneck 34.9853 0.958971 2.7937
head 15.7984 1.25909 1.35594
rclavicle 1.88845e-015 2.78299e-014
rhumerus -33.7613 1.33459 -75.9618
rradius 29.5266
rwrist 10.0329
rhand -15.1726 20.3492
rfingers 7.12502
rthumb 10.9983 -9.34271
lclavicle 1.88845e-015 2.78299e-014
lhumerus -32.0603 -0.123247 89.1018
lradius 30.0349
lwrist 22.9937
lhand -25.8321 54.1798
lfingers 7.12502
lthumb 0.707911 84.1584
rfemur -2.15868 9.03822 25.3515
rtibia 10.564
rfoot -11.1162 -15.5324
rtoes -12.6809
lfemur -28.3134 2.76536 -12.6458
ltibia 43.6379
lfoot -12.3172 -5.65358
ltoes -29.2682
1084
root -16.0393 17.5779 -1.32625 26.4727 93.8574 20.0697
lowerback 4.98019 0.84168 3.57385
upperback 0.891707 1.39207 1.97502
thorax -1.83966 0.695594 -0.0637263
lowerneck -20.2995 0.901146 0.814721
upperneck 35.1384 0.90556 3.09389
head 15.8695 1.29973 1.46499
rclavicle -1.15295e-014 -4.53229e-014
rhumerus -33.4794 0.484705 -75.4764
rradius 28.3778
rwrist 10.8511
rhand -15.296 20.3577
rfingers 7.12502
rthumb 10.8793 -9.34049
lclavicle -1.15295e-014 -4.53229e-014
lhumerus -32.2652 -0.442991 89.2261
lradius 29.6077
lwrist 22.5908
lhand -25.2061 53.4208
lfingers 7.12502
lthumb 1.31254 83.3965
rfemur -2.52951 8.92996 25.4202
rtibia 11.3748
rfoot -11.4933 -15.4623
rtoes -12.6695
lfemur -27.3572 2.85822 -12.7095
ltibia 43.8803
lfoot -12.2334 -6.19736
ltoes -26.1092
1085
root -16.0497 17.5673 -1.31913 25.5462 93.879 19.2077
lowerback 4.74363 0.825512 3.52348
upperback 0.799933 1.35593 1.94822
thorax -1.80319 0.676481 -0.0575553
lowerneck -20.176 0.820506 0.973488
upperneck 35.2158 0.653974 3.31263
head 15.8853 1.25537 1.48566
rclavicle -6.4605e-015 -7.95139e-015
rhumerus -33.3402 -1.02054 -74.8956
rradius 27.334
rwrist 11.9044
rhand -15.6113 20.325
rfingers 7.12502
rthumb 10.5751 -9.38895
lclavicle -6.4605e-015 -7.95139e-015
lhumerus -32.4215 -0.938201 89.3778
lradius 29.1515
lwrist 22.3259
lhand -25.0943 53.2468
lfingers 7.12502
lthumb 1.42047 83.2218
rfemur -2.84712 8.66879 25.3739
rtibia 12.0522
rfoot -11.8842 -15.3019
rtoes -12.5332
lfemur -26.3385 2.62218 -12.8198
ltibia 43.6152
lfoot -12.6458 -5.96819
ltoes -26.4556
1086
root -16.0539 17.5586 -1.3157 24.7916 93.8767 18.5459
lowerback 4.48159 0.778739 3.38635
upperback 0.722421 1.2762 1.9973
thorax -1.74247 0.637381 0.0779035
lowerneck -20.0919 0.759427 1.08261
upperneck 35.3221 0.516894 3.34986
head 15.922 1.22435 1.45992
rclavicle -4.27387e-015 4.77083e-015
rhumerus -33.266 -2.47771 -74.2106
rradius 26.4751
rwrist 12.664
rhand -15.9966 20.3798
rfingers 7.12502
rthumb 10.2035 -9.35271
lclavicle -4.27387e-015 4.77083e-015
lhumerus -32.6096 -1.09643 89.5463
lradius 28.7321
lwrist 21.9331
lhand -25.1654 53.0747
lfingers 7.12502
lthumb 1.35186 83.0502
rfemur -3.02518 8.55047 25.3321
rtibia 12.5609
rfoot -12.1612 -15.2347
rtoes -12.3862
lfemur -25.1595 2.17133 -12.8732
ltibia 42.8479
lfoot -12.7139 -5.55591
ltoes -26.382
1087
root -16.053 17.5512 -1.31351 25.3867 93.8645 19.2687
lowerback 4.26626 0.688651 3.20588
upperback 0.670232 1.14286 2.14127
thorax -1.68518 0.573112 0.337029
lowerneck -20.0753 0.969137 1.52254
upperneck 35.4532 0.742867 3.15729
head 15.9839 1.354 1.34754
rclavicle -1.03368e-014 -3.18055e-015
rhumerus -33.2175 -3.69687 -73.5297
rradius 25.8972
rwrist 13.0111
rhand -16.3845 20.481
rfingers 7.12502
rthumb 9.82918 -9.26961
lclavicle -1.03368e-014 -3.18055e-015
lhumerus -32.826 -1.23164 89.8186
lradius 28.4578
lwrist 21.7579
lhand -25.0821 52.9527
lfingers 7.12502
lthumb 1.4323 82.9276
rfemur -3.05123 8.51558 25.3961
rtibia 12.8621
rfoot -12.2698 -15.2382
rtoes -12.6007
lfemur -23.8374 1.61341 -12.7861
ltibia 41.6159
lfoot -12.4313 -4.73843
ltoes -26.205
1088
root -16.0463 17.5459 -1.31462 26.632 93.8571 20.6926
lowerback 4.08739 0.64837 3.12369
upperback 0.627053 1.08015 2.21719
thorax -1.6335 0.54297 0.466518
lowerneck -20.1391 0.661131 1.0217
upperneck 35.4484 0.179726 3.90536
head 16.0054 1.16372 1.65325
rclavicle -1.09332e-015 1.59028e-014
rhumerus -33.385 -4.90638 -73.0013
rradius 25.6233
rwrist 12.9024
rhand -16.9218 20.5419
rfingers 7.12502
rthumb 9.31078 -9.23254
lclavicle -1.09332e-015 1.59028e-014
lhumerus -32.9912 -1.62353 90.0803
lradius 28.2753
lwrist 21.6773
lhand -24.8153 53.3292
lfingers 7.12502
lthumb 1.68993 83.3022
rfemur -2.92322 8.40792 25.5022
rtibia 13.0127
rfoot -12.3896 -15.133
rtoes -12.4281
lfemur -22.4084 0.994068 -12.6521
ltibia 39.9893
lfoot -12.9088 -4.59873
ltoes -26.3387
1089
root -16.0355 17.5428 -1.32028 27.6196 93.8263 21.8736
lowerback 3.90521 0.617253 3.04153
upperback 0.58458 1.0288 2.27017
thorax -1.57828 0.518264 0.571635
lowerneck -20.137 0.594838 1.04504
upperneck 35.4662 -0.013338 4.12377
head 16.0207 1.12113 1.70829
rclavicle 1.07344e-014 -1.74931e-014
rhumerus -33.6182 -5.84345 -72.6242
rradius 25.5572
rwrist 12.2685
rhand -17.3963 20.4845
rfingers 7.12502
rthumb 8.85294 -9.30979
lclavicle 1.07344e-014 -1.74931e-014
lhumerus -33.107 -1.80989 90.248
lradius 27.9945
lwrist 21.5099
lhand -24.6929 53.13
lfingers 7.12502
lthumb 1.80818 83.1021
rfemur -2.72312 8.35845 25.5646
rtibia 13.0932
rfoot -12.4696 -15.0282
rtoes -11.9189
lfemur -20.9995 0.207611 -12.5667
ltibia 38.0932
lfoot -14.0648 -3.50301
ltoes -28.9779
1090
root -16.0238 17.539 -1.32939 27.7431 93.7491 22.215
lowerback 3.76413 0.551098 2.83993
upperback 0.556875 0.928553 2.35588
thorax -1.53353 0.470024 0.778949
lowerneck -20.1737 0.597198 0.936969
upperneck 35.427 -0.082586 4.40222
head 16.0131 1.1171 1.8339
rclavicle -2.98177e-016 2.70347e-014
rhumerus -33.7872 -6.29053 -72.397
rradius 25.6433
rwrist 11.2304
rhand -17.8759 20.3266
rfingers 7.12502
rthumb 8.39009 -9.48676
lclavicle -2.98177e-016 2.70347e-014
lhumerus -33.1762 -1.89988 90.4758
lradius 27.7437
lwrist 21.4459
lhand -24.6796 52.9043
lfingers 7.12502
lthumb 1.82101 82.8763
rfemur -2.46078 8.37102 25.5499
rtibia 13.1259
rfoot -12.4528 -14.9856
rtoes -12.038
lfemur -19.6259 -0.83991 -12.5839
ltibia 36.1022
lfoot -15.0114 -2.29572
ltoes -29.9332
